<svg xmlns="http://www.w3.org/2000/svg" xmlns:xlink="http://www.w3.org/1999/xlink">

<symbol id="twitt" viewBox="0 0 14 14">
    <g clip-path="url(#clip0_1_175)">
    <path d="M14 2.902C13.4843 3.12989 12.9313 3.28466 12.3503 3.35389C12.943 2.99844 13.3988 2.43533 13.6127 1.76566C13.0589 2.09466 12.4437 2.33344 11.7896 2.46178C11.2653 1.90411 10.5179 1.55566 9.69268 1.55566C8.10679 1.55566 6.82035 2.84055 6.82035 4.42722C6.82035 4.652 6.84524 4.87133 6.89502 5.08211C4.50724 4.96155 2.3909 3.81822 0.974571 2.08144C0.727238 2.50533 0.585682 2.99922 0.585682 3.52422C0.585682 4.52133 1.09279 5.40022 1.86357 5.91511C1.39302 5.90033 0.949682 5.77122 0.562349 5.55655C0.562349 5.56822 0.562349 5.57989 0.562349 5.59233C0.562349 6.98378 1.55246 8.14578 2.86613 8.40866C2.62502 8.474 2.37146 8.509 2.10935 8.509C1.92502 8.509 1.74457 8.49266 1.56957 8.45844C1.93435 9.60022 2.99602 10.4301 4.25213 10.4534C3.26979 11.2234 2.03157 11.6823 0.686016 11.6823C0.45346 11.6823 0.225571 11.6683 0.000793457 11.6411C1.27168 12.457 2.78135 12.9314 4.40379 12.9314C9.68646 12.9314 12.5759 8.55489 12.5759 4.76011C12.5759 4.63489 12.5728 4.51044 12.5666 4.38755C13.1273 3.98466 13.615 3.47833 14 2.902Z"
     fill="currentColor"/>
    </g>
    <defs>
    <clipPath id="clip0_1_175"></clipPath>
    </defs>
</symbol>

<symbol id="instagram" viewBox="0 0 14 14">
<g clip-path="url(#clip0_1_171)">
<path d="M11.2313 6.99918C11.2313 9.33635 9.33471 11.2313 6.99835 11.2313C4.66118 11.2313 2.76706 9.33635 2.76706 6.99918C2.76706 6.72082 2.79424 6.44906 2.84612 6.18553H0V11.8111C0 13.0192 0.979176 13.9984 2.18729 13.9984H11.8111C13.0167 13.9984 13.9984 13.0192 13.9984 11.8111V6.18553H11.1522C11.2041 6.44906 11.2313 6.72082 11.2313 6.99918Z" fill="currentColor"/>
<path d="M11.8111 0H2.18729C0.979176 0 0 0.979176 0 2.18729V4.55741H3.54365C4.30953 3.47447 5.572 2.76706 6.99835 2.76706C8.42635 2.76706 9.68882 3.47365 10.4531 4.55741H13.9984V2.18729C13.9984 0.979176 13.0167 0 11.8111 0Z" fill="currentColor"/>
<path d="M12.8808 2.702C12.8808 2.91694 12.7038 3.09318 12.4896 3.09318H11.3169C11.1012 3.09318 10.9266 2.91776 10.9266 2.702V1.53012C10.9266 1.31518 11.1012 1.13894 11.3169 1.13894H12.4896C12.7038 1.13894 12.8808 1.31435 12.8808 1.53012V2.702Z" fill="white"/>
<path d="M9.60235 6.99918C9.60235 5.56047 8.43706 4.39435 6.99835 4.39435C5.56129 4.39435 4.39435 5.56129 4.39435 6.99918C4.39435 8.43706 5.56129 9.60235 6.99835 9.60235C8.43706 9.60235 9.60235 8.43706 9.60235 6.99918Z" fill="currentColor"/>
</g>
<defs>
<clipPath id="clip0_1_171">
</clipPath>
</defs>
</symbol>

<symbol id="behance" viewBox="0 0 14 14">
    <path d="M5.61318 6.57353C5.61318 6.57353 6.92918 6.47141 6.92918 4.86388C6.93 3.25553 5.85282 2.4707 4.48906 2.4707H0V11.4571H4.48906C4.48906 11.4571 7.22894 11.5476 7.22894 8.80364C7.22894 8.80364 7.34835 6.57353 5.61318 6.57353ZM1.97812 4.06835H4.48823C4.48823 4.06835 5.09847 4.06835 5.09847 5.00388C5.09847 5.93859 4.73941 6.07447 4.33259 6.07447H1.97812V4.06835ZM4.36141 9.86023H1.97812V7.458H4.48823C4.48823 7.458 5.39741 7.44647 5.39741 8.69164C5.39824 9.74329 4.71882 9.852 4.36141 9.86023ZM10.8829 4.75764C7.56659 4.75764 7.56988 8.20906 7.56988 8.20906C7.56988 8.20906 7.34176 11.6456 10.8829 11.6456C10.8829 11.6456 13.8345 11.8219 13.8345 9.25576H12.3175C12.3175 9.25576 12.3678 10.2226 10.934 10.2226C10.934 10.2226 9.41459 10.3288 9.41459 8.65788H13.8855C13.8855 8.65706 14.3739 4.75764 10.8829 4.75764ZM12.2327 7.458H9.39976C9.39976 7.458 9.58506 6.07447 10.9175 6.07447C12.2484 6.07364 12.2327 7.458 12.2327 7.458ZM12.5852 3.00023H9.02753V4.10788H12.5852V3.00023Z" 
fill="currentColor"/>
</symbol>

<symbol id="dribbble" viewBox="0 0 14 14">
    <g clip-path="url(#clip0_1_183)">
    <path d="M6.52565 4.92882C5.51435 3.13106 4.43306 1.666 4.35318 1.55894C2.72259 2.33059 1.50541 3.83271 1.12576 5.64282C1.27894 5.64612 3.71659 5.67494 6.52565 4.92882ZM7.25365 6.89376C7.33024 6.86906 7.40765 6.846 7.48424 6.82459C7.33765 6.49188 7.17706 6.15918 7.00906 5.82976C3.99824 6.73153 1.10682 6.66647 1.00471 6.66318C1.00306 6.72494 1.00059 6.78671 1.00059 6.84929C1.00059 8.35306 1.56882 9.72341 2.50106 10.7602C2.50024 10.7586 2.49776 10.7545 2.49776 10.7545C2.49776 10.7545 4.09788 7.91494 7.25365 6.89376ZM3.25376 11.4602L3.25459 11.4569C3.21176 11.4232 3.16565 11.3927 3.12282 11.3565C3.20024 11.4191 3.25376 11.4602 3.25376 11.4602ZM5.44765 1.17024C5.44188 1.17188 5.43777 1.17271 5.432 1.17353C5.44106 1.17188 5.44765 1.17106 5.44765 1.17024ZM10.7116 2.45906C9.68224 1.55153 8.33 0.999765 6.84929 0.999765C6.37329 0.999765 5.91294 1.05741 5.47153 1.16447C5.56047 1.28224 6.65741 2.74071 7.658 4.57635C9.86259 3.75035 10.696 2.48376 10.7116 2.45906ZM6.84847 13.6978C3.06682 13.6978 0 10.6309 0 6.84847C0 3.066 3.06682 0 6.84847 0C10.6301 0 13.6969 3.06682 13.6969 6.84847C13.6969 10.6301 10.6309 13.6978 6.84847 13.6978ZM7.84329 7.80624C4.41082 9.002 3.27765 11.4092 3.25459 11.4578C4.24694 12.2335 5.49212 12.6996 6.84847 12.6996C7.658 12.6996 8.43047 12.5333 9.13129 12.236C9.04482 11.7238 8.70471 9.93176 7.882 7.79471C7.86965 7.798 7.85729 7.80212 7.84329 7.80624ZM8.10682 5.44847C8.24435 5.72682 8.37447 6.01094 8.49635 6.29671C8.54 6.39718 8.582 6.49847 8.62235 6.59812C10.6425 6.34447 12.6321 6.77518 12.6964 6.79C12.6824 5.40153 12.1866 4.13 11.3664 3.13353C11.354 3.15165 10.416 4.50553 8.10682 5.44847ZM8.97812 7.52294C9.74647 9.63282 10.0586 11.3507 10.1171 11.6999C11.4298 10.8129 12.3645 9.408 12.6247 7.77659C12.5078 7.73953 10.8698 7.21988 8.97812 7.52294Z" 
    fill="currentColor"/>
    </g>
    <defs>
    <clipPath id="clip0_1_183">
    </clipPath>
    </defs>
</symbol>

<symbol id="mail" viewBox="0 0 14 14">
<path d="M6.63106 10.2562L4.40753 8.18007C4.23212 8.01619 3.948 8.01619 3.77259 8.18007L0 11.6949V12.1734C0 12.6197 0.391176 12.9829 0.868823 12.9829H13.0282C13.5059 12.9829 13.8971 12.6197 13.8971 12.1734V11.6949L10.1245 8.17843C9.94823 8.01619 9.66329 8.01619 9.48953 8.17843L7.266 10.2545C7.09059 10.4193 6.80647 10.4193 6.63106 10.2562ZM11.3573 7.0296L13.58 9.10572C13.7546 9.2696 13.8971 9.20702 13.8971 8.96737V4.50055C13.8971 4.26007 13.7546 4.19831 13.58 4.36219L11.3573 6.43831C11.1811 6.60137 11.1811 6.86572 11.3573 7.0296ZM0.868823 0.823486C0.391176 0.823486 0 1.18831 0 1.63384V1.7796L6.59729 7.95937C6.77188 8.12325 7.05518 8.12325 7.22976 7.95937L13.8971 1.70631V1.63384C13.8971 1.18831 13.5059 0.823486 13.0282 0.823486H0.868823ZM0 4.50055V8.96737C0 9.20702 0.142471 9.2696 0.317059 9.10572L2.53976 7.0296C2.716 6.86572 2.716 6.60137 2.53976 6.43749L0.317059 4.36219C0.142471 4.19831 0 4.26007 0 4.50055Z"
fill="currentColor"/>
</symbol>

<symbol id="twitter-social" viewBox="0 0 14 14">
<g clip-path="url(#clip0_1_260)">
<path d="M14 2.902C13.4843 3.12989 12.9313 3.28466 12.3503 3.35389C12.943 2.99844 13.3988 2.43533 13.6127 1.76566C13.0589 2.09466 12.4437 2.33344 11.7896 2.46178C11.2653 1.90411 10.5179 1.55566 9.69268 1.55566C8.10679 1.55566 6.82035 2.84055 6.82035 4.42722C6.82035 4.652 6.84524 4.87133 6.89502 5.08211C4.50724 4.96155 2.3909 3.81822 0.974571 2.08144C0.727238 2.50533 0.585682 2.99922 0.585682 3.52422C0.585682 4.52133 1.09279 5.40022 1.86357 5.91511C1.39302 5.90033 0.949682 5.77122 0.562349 5.55655C0.562349 5.56822 0.562349 5.57989 0.562349 5.59233C0.562349 6.98378 1.55246 8.14578 2.86613 8.40866C2.62502 8.474 2.37146 8.509 2.10935 8.509C1.92502 8.509 1.74457 8.49266 1.56957 8.45844C1.93435 9.60022 2.99602 10.4301 4.25213 10.4534C3.26979 11.2234 2.03157 11.6823 0.686016 11.6823C0.45346 11.6823 0.225571 11.6683 0.000793457 11.6411C1.27168 12.457 2.78135 12.9314 4.40379 12.9314C9.68646 12.9314 12.5759 8.55489 12.5759 4.76011C12.5759 4.63489 12.5728 4.51044 12.5666 4.38755C13.1273 3.98466 13.615 3.47833 14 2.902Z"
 fill="black"/>
</g>
<defs>
<clipPath id="clip0_1_260">
</clipPath>
</defs>
</symbol>

<symbol id="linkdin-social" viewBox="0 0 14 14">
<g clip-path="url(#clip0_1_254)">
<path d="M3.17059 1.49635C3.17059 2.32318 2.56035 2.99271 1.55565 2.99271C0.610235 2.99353 0 2.324 0 1.49635C0 0.649765 0.63 0 1.59518 0C2.55953 0 3.15082 0.649765 3.17059 1.49635ZM0.0790588 13.804V4.17447H3.07176V13.8032H0.0790588V13.804Z" fill="black"/>
<path d="M4.86296 7.24685C4.86296 6.04532 4.82426 5.04144 4.78473 4.17508H7.38379L7.52214 5.51414H7.58061C7.97426 4.88332 8.93943 3.9585 10.5536 3.9585C12.5226 3.95767 14 5.27697 14 8.1132V13.8038H11.0065V8.46732C11.0065 7.22708 10.5741 6.3805 9.49038 6.3805C8.66273 6.3805 8.17108 6.9512 7.95532 7.50297C7.87543 7.69979 7.85649 7.97567 7.85649 8.25073V13.8038H4.86296V7.24685Z" fill="black"/>
</g>
<defs>
<clipPath id="clip0_1_254">
</clipPath>
</defs>
</symbol>

<symbol id="facebook-social" viewBox="0 0 14 14">
    
<g clip-path="url(#clip0_1_250)">
<path d="M12.25 0H1.75C0.787294 0 0 0.788118 0 1.75V12.25C0 13.2135 0.787294 14 1.75 14H7.06094V8.97976H5.38341V6.79329H7.06094V5.698C7.06094 4.00894 8.30694 2.68635 9.898 2.68635H11.4438V5.15529H10.0611C9.70035 5.15529 9.59247 5.36282 9.59247 5.65024V6.79329H11.4438V8.97976H9.59247V14H12.25C13.2135 14 14 13.2135 14 12.25V1.75C14 0.788118 13.2135 0 12.25 0Z" fill="black"/>
</g>
<defs>
<clipPath id="clip0_1_250">
</clipPath>
</defs>
</symbol>

<symbol id="brackets" viewBox="0 0 62 62">
    <g clip-path="url(#clip0_1_212)">
<path d="M31 0C13.879 0 0 13.88 0 31.001C0 48.122 13.879 62 31 62C48.12 62 62 48.122 62 31.001C62 13.88 48.12 0 31 0ZM23.803 31.252C25.309 31.252 26.494 31.622 27.357 32.363C28.22 33.104 28.652 34.192 28.652 35.626C28.652 36.647 28.269 37.602 27.504 38.488C26.739 39.374 25.687 39.818 24.35 39.818C22.259 39.818 20.765 39.132 19.866 37.761C18.968 36.391 18.517 34.589 18.517 32.357C18.517 30.781 18.858 29.343 19.538 28.046C20.219 26.748 21.046 25.589 22.017 24.569C23.014 23.526 24.071 22.641 25.189 21.913C26.307 21.185 27.243 20.591 27.997 20.13L29.309 22.31C28.166 22.964 27.243 23.529 26.538 24C25.833 24.474 25.115 25.097 24.387 25.871C23.706 26.599 23.183 27.362 22.82 28.161C22.455 28.961 22.2 29.991 22.054 31.251H23.803V31.252ZM37.292 31.252C38.799 31.252 39.983 31.622 40.847 32.363C41.709 33.104 42.141 34.192 42.141 35.626C42.141 36.647 41.759 37.602 40.994 38.488C40.229 39.374 39.176 39.818 37.841 39.818C35.75 39.818 34.255 39.132 33.356 37.761C32.457 36.391 32.007 34.589 32.007 32.357C32.007 30.781 32.347 29.343 33.028 28.046C33.709 26.748 34.535 25.589 35.507 24.569C36.503 23.526 37.56 22.641 38.678 21.913C39.796 21.185 40.732 20.591 41.487 20.13L42.799 22.31C41.657 22.964 40.733 23.529 40.028 24C39.323 24.474 38.606 25.097 37.877 25.871C37.173 26.622 36.644 27.392 36.291 28.18C35.939 28.967 35.689 29.992 35.544 31.251H37.292V31.252Z" fill="black"/>
</g>
<defs>
<clipPath id="clip0_1_212"></clipPath>
</defs>
</symbol>

</svg>